Coordinates
version=1
nRows=12
nColumns=46
inDegrees=yes

Units are S.I. units (second, meters, Newtons, ...)
Angles are in degrees.

endheader
time	pelvis_tilt	pelvis_list	pelvis_rotation	pelvis_tx	pelvis_ty	pelvis_tz	bb_angle	bb_tx	bb_ty	bb_tz	hip_flexion_r	hip_adduction_r	hip_rotation_r	knee_angle_r	knee_angle_r_beta	ankle_angle_r	subtalar_angle_r	mtp_angle_r	crank_angle_r	hip_flexion_l	hip_adduction_l	hip_rotation_l	knee_angle_l	knee_angle_l_beta	ankle_angle_l	subtalar_angle_l	mtp_angle_l	crank_angle_l	lumbar_extension	lumbar_bending	lumbar_rotation	arm_flex_r	arm_add_r	arm_rot_r	elbow_flex_r	pro_sup_r	wrist_flex_r	wrist_dev_r	arm_flex_l	arm_add_l	arm_rot_l	elbow_flex_l	pro_sup_l	wrist_flex_l	wrist_dev_l
      5.00000000	     -5.03805744	     -3.74349812	     -2.07974039	      0.12235489	      1.14222263	     -0.28813752	      0.00000000	      0.50000000	      0.00000000	      0.25000000	     67.12950746	     -2.40013706	      0.61083497	    110.17745705	      1.92295939	      4.87928472	     -9.21982398	      0.00000000	      0.00000000	     39.66754636	    -11.26221600	     -4.87903027	     39.54552774	      0.69019966	     -1.92145395	      6.59702274	      0.00000000	      0.00000000	    -64.81409898	      2.16183810	     -0.19472087	     84.93056306	     -5.08950961	     36.04284127	     40.91688890	     43.21364427	      0.00000000	      0.00000000	     84.86390333	    -25.51212838	     46.86556719	     43.88374174	     47.39896500	      0.00000000	      0.00000000
      5.00500000	     -4.77696323	     -3.99178520	     -2.78464855	      0.12285886	      1.14451547	     -0.28824844	      0.00000000	      0.50000000	      0.00000000	      0.25000000	     68.09262483	     -1.54423831	      0.79805649	    110.90233797	      1.93561095	      4.56295510	     -9.51110659	      0.00000000	      0.00000000	     37.70753571	    -12.15181972	     -6.69206672	     37.85644008	      0.66071952	     -3.02039813	      7.99505078	      0.00000000	      0.00000000	    -65.19945894	      1.90135200	      0.33079921	     85.00292156	     -4.97725140	     35.88907789	     40.99304413	     43.20062032	      0.00000000	      0.00000000	     85.08794026	    -25.48537185	     47.43963455	     43.35755785	     47.40509999	      0.00000000	      0.00000000
      5.01000000	     -4.98047346	     -4.53581977	     -2.92783482	      0.12309356	      1.14591234	     -0.28965736	      0.00000000	      0.50000000	      0.00000000	      0.25000000	     69.49280927	     -1.23048784	      0.49611862	    111.52499949	      1.94647844	      4.46878953	     -9.31516292	      0.00000000	      0.00000000	     36.59633289	    -12.73506803	     -7.37948757	     36.44128519	      0.63602041	     -4.06396280	      8.63281908	      0.00000000	      0.00000000	    -65.19517886	      2.53827971	      0.93179210	     85.16572185	     -4.80699080	     35.85390075	     41.13568806	     43.21554883	      0.00000000	      0.00000000	     85.06213012	    -25.57327928	     47.65031330	     43.13459027	     47.40262551	      0.00000000	      0.00000000
      5.01500000	     -4.59853547	     -4.72211031	     -3.54210240	      0.12339927	      1.14853504	     -0.28969633	      0.00000000	      0.50000000	      0.00000000	      0.25000000	     70.30755758	     -0.46272377	      0.69706813	    112.05784022	      1.95577826	      4.23133008	     -9.41438471	      0.00000000	      0.00000000	     34.59474966	    -13.46059414	     -9.28913644	     34.94904816	      0.60997596	     -5.25184117	      9.98433417	      0.00000000	      0.00000000	    -65.73832091	      2.23063526	      1.45797545	     85.12834310	     -4.88509546	     35.45588869	     41.40290551	     43.20393660	      0.00000000	      0.00000000	     85.47636488	    -25.38531838	     48.69447760	     42.35038922	     47.42675026	      0.00000000	      0.00000000
      5.02000000	     -4.69433241	     -5.06095406	     -3.75499226	      0.12354623	      1.15003192	     -0.29103487	      0.00000000	      0.50000000	      0.00000000	      0.25000000	     71.63848864	     -0.18054082	      0.56500917	    112.50417632	      1.96356830	      3.88954371	     -9.33613985	      0.00000000	      0.00000000	     33.41961556	    -13.87878934	    -10.20377694	     33.77904969	      0.58955564	     -6.19544210	     10.70419508	      0.00000000	      0.00000000	    -65.79695211	      2.46127134	      2.44413598	     84.72578728	     -5.41680927	     34.10764735	     42.54102250	     43.21829520	      0.00000000	      0.00000000	     86.58973093	    -24.58780052	     51.88942053	     40.19967456	     47.54471643	      0.00000000	      0.00000000
      5.02500000	     -4.83056989	     -5.44106117	     -3.82933356	      0.12337154	      1.15141341	     -0.29234825	      0.00000000	      0.50000000	      0.00000000	      0.25000000	     72.98074504	     -0.02108185	      0.34860775	    112.81541112	      1.96900037	      3.48369409	     -9.09837116	      0.00000000	      0.00000000	     32.46527103	    -14.23486007	    -10.81327356	     32.84087595	      0.57318141	     -7.01007398	     11.10443265	      0.00000000	      0.00000000	    -65.90263193	      3.01503573	      2.89679426	     84.86941764	     -5.27532995	     34.11202595	     42.65231346	     43.23439677	      0.00000000	      0.00000000	     86.61034239	    -24.72928571	     51.91874206	     40.08831449	     47.53283488	      0.00000000	      0.00000000
      5.03000000	     -4.61668380	     -5.53902828	     -4.37012455	      0.12339400	      1.15351263	     -0.29264998	      0.00000000	      0.50000000	      0.00000000	      0.25000000	     73.98037308	      0.55427557	      0.49929464	    113.02367938	      1.97263534	      2.82586059	     -9.32016386	      0.00000000	      0.00000000	     30.88934069	    -14.67035405	    -12.32899523	     31.85118300	      0.55590801	     -7.89182529	     11.94134014	      0.00000000	      0.00000000	    -66.34330081	      2.79648825	      3.22977010	     84.92539201	     -5.16473934	     33.96836168	     42.88330077	     43.25096774	      0.00000000	      0.00000000	     86.72509839	    -24.79626442	     52.15002618	     39.86162352	     47.53040914	      0.00000000	      0.00000000
      5.03500000	     -4.70405294	     -5.82209562	     -4.45878739	      0.12309899	      1.15484854	     -0.29373552	      0.00000000	      0.50000000	      0.00000000	      0.25000000	     75.25234574	      0.71870807	      0.36858187	    113.13583286	      1.97459279	      2.23894026	     -9.01022368	      0.00000000	      0.00000000	     30.02291041	    -14.93883241	    -12.83556834	     31.25944466	      0.54558023	     -8.47680070	     12.26203752	      0.00000000	      0.00000000	    -66.51549585	      3.20648668	      3.59627273	     85.11085283	     -5.02056164	     33.92838042	     43.03676995	     43.26781675	      0.00000000	      0.00000000	     86.80494505	    -24.93268630	     52.16187348	     39.74421352	     47.51367297	      0.00000000	      0.00000000
      5.04000000	     -4.75012611	     -5.98007588	     -4.65800315	      0.12267960	      1.15620153	     -0.29452863	      0.00000000	      0.50000000	      0.00000000	      0.25000000	     76.44123202	      0.95033620	      0.35161523	    113.11805833	      1.97428256	      1.60006525	     -8.85744967	      0.00000000	      0.00000000	     29.14014891	    -15.16931357	    -13.49612004	     30.81612322	      0.53784281	     -8.96870786	     12.51139356	      0.00000000	      0.00000000	    -66.73826329	      3.43540555	      3.90146993	     85.31246541	     -4.85929173	     33.85956796	     43.21241955	     43.28417839	      0.00000000	      0.00000000	     86.84097368	    -25.09305374	     52.17434925	     39.61993636	     47.49649893	      0.00000000	      0.00000000
      5.04500000	     -4.69079425	     -5.93385680	     -5.11332751	      0.12238167	      1.15765311	     -0.29473849	      0.00000000	      0.50000000	      0.00000000	      0.25000000	     77.50103722	      1.37894465	      0.54292013	    113.00633238	      1.97233258	      0.79637530	     -9.06956813	      0.00000000	      0.00000000	     28.09317459	    -15.38108158	    -14.63132640	     30.54435117	      0.53309950	     -9.27289409	     12.77907071	      0.00000000	      0.00000000	    -67.02696200	      3.22881615	      4.05038350	     85.34761879	     -4.67384486	     33.51073763	     43.51252976	     43.28497269	      0.00000000	      0.00000000	     86.94522717	    -25.26986286	     52.21995129	     39.58229542	     47.49589302	      0.00000000	      0.00000000
      5.05000000	     -4.72919767	     -5.99311007	     -5.19971776	      0.12145280	      1.15864515	     -0.29520438	      0.00000000	      0.50000000	      0.00000000	      0.25000000	     78.60142975	      1.53056879	      0.57152278	    112.77259795	      1.96825314	      0.02634917	     -8.98336344	      0.00000000	      0.00000000	     27.51822852	    -15.44182818	    -14.86428471	     30.60008562	      0.53407225	     -9.51768026	     12.37846911	      0.00000000	      0.00000000	    -67.25648136	      3.39759937	      4.16538071	     85.54132715	     -4.46450688	     33.12504861	     43.77445822	     43.27225602	      0.00000000	      0.00000000	     87.08625219	    -25.47846831	     52.21908292	     39.63672379	     47.50067115	      0.00000000	      0.00000000
      5.05500000	     -4.67659364	     -6.00334811	     -5.26188131	      0.12030485	      1.15953110	     -0.29577073	      0.00000000	      0.50000000	      0.00000000	      0.25000000	     79.53242922	      1.62420553	      0.64560505	    112.43344473	      1.96233380	     -0.60198668	     -8.71682396	      0.00000000	      0.00000000	     27.01154376	    -15.43866521	    -14.98008753	     30.93317914	      0.53988582	     -9.54892058	     11.94148214	      0.00000000	      0.00000000	    -67.56292701	      3.57110116	      4.30146038	     85.84074866	     -4.33976500	     33.02035950	     43.90124386	     43.27516825	      0.00000000	      0.00000000	     87.25543066	    -25.57131326	     52.17469037	     39.63476681	     47.49139364	      0.00000000	      0.00000000
